<?xml version="1.0" encoding="UTF-8"?>
<svg id="Layer_1" xmlns="http://www.w3.org/2000/svg" version="1.1" viewBox="0 0 226.77 226.77">
  <!-- Generator: Adobe Illustrator 29.6.1, SVG Export Plug-In . SVG Version: 2.1.1 Build 9)  -->
  <rect y="-10.62" width="227" height="245.57" stroke="#fff" stroke-miterlimit="10"/>
  <path d="M31.17,60.76h30.97c1.32,0,2.38.35,3.43,1.06,10.29,6.86,20.67,13.64,30.97,20.41,5.1,3.34,10.2,6.77,15.31,10.12.97.7,1.76.79,2.82.09,15.13-10.03,30.35-20.06,45.48-30.17,1.67-1.14,3.26-1.58,5.28-1.58,9.15.09,18.3,0,27.45,0h1.14c.35,0,.7-.09.88.35s-.18.7-.53.97c-2.2,1.58-4.4,3.26-6.6,4.84-7.3,5.19-14.6,10.47-21.91,15.66-9.77,6.95-19.71,13.81-29.38,20.85-6.95,5.1-14.16,9.94-21.03,15.22-1.5,1.14-2.55,1.14-4.13,0-15.75-11.17-31.49-22.43-47.24-33.69-10.56-7.57-21.11-15.04-31.67-22.61-.35-.26-.88-.53-1.23-1.5v-.02h0Z" fill="#ef7f22"/>
  <path d="M213.19,105.89c-28.06,26.04-56.04,52.17-84.1,78.21-.09,0-.18-.09-.18-.09.79-1.5,1.58-2.99,2.38-4.49,10.12-17.42,20.32-34.93,30.44-52.34.97-1.67.09-1.67-1.14-1.58h-30c-2.11,0-2.11-.09-1.14-1.85,3.08-5.28,6.07-10.56,9.15-15.75.35-.62.79-1.14,1.41-1.58,18.21-13.02,36.33-25.95,54.54-38.97.26-.18.53-.26.79-.44.35.7-.18,1.06-.35,1.41-6.69,11.7-13.46,23.49-20.15,35.19-.71,1.17-.35,1.76,1.06,1.76h37.04c.18.18.26.35.26.53h0Z" fill="#99cc67"/>
  <path d="M96.36,182.87c-5.28-4.93-10.56-9.77-15.84-14.69-21.64-20.06-43.37-40.29-65.01-60.44-.62-.62-1.32-1.23-1.94-1.85.7-.7,1.41-.44,2.02-.44h35.1c2.11,0,2.2,0,1.06-1.94-6.69-11.61-13.28-23.23-19.97-34.84-.26-.35-.53-.7-.53-1.23h0c.62-.35.88.26,1.32.53,17.86,12.76,35.72,25.51,53.66,38.27.62.44,1.14.88,1.5,1.5,3.26,5.63,6.51,11.26,9.85,16.98.09.18.09.35.18.53-.44.53-.97.26-1.5.26h-30.44c-1.41,0-1.94.09-1.06,1.67,10.2,17.59,20.41,35.28,30.61,52.96.44.79.88,1.58,1.23,2.46-.09.09-.18.18-.26.26h.02Z" fill="#99cc67"/>
</svg>